<svg width="179" height="32" viewBox="0 0 179 32" fill="none" xmlns="http://www.w3.org/2000/svg" class="block !max-w-none w-auto h-[22px] md:h-[26px] md:mb-[6px]"><path d="M59.7923 29.7177C58.9293 29.7177 58.1622 29.5739 57.491 29.2384C56.8197 28.9029 56.2444 28.4715 55.8608 27.8484C55.4773 27.2253 55.2375 26.5063 55.2375 25.5956C55.2375 24.8287 55.3814 24.2056 55.6691 23.7262C55.9567 23.2469 56.3403 22.8635 56.8677 22.5759C57.3471 22.2883 57.9225 22.0966 58.5458 21.9048C59.1691 21.761 59.7923 21.6652 60.4156 21.5693C61.2307 21.4735 61.9019 21.3776 62.3814 21.3297C62.9088 21.2817 63.2444 21.1859 63.4841 21.0421C63.7239 20.8983 63.8198 20.6586 63.8198 20.371V20.3231C63.8198 19.5562 63.628 18.981 63.1965 18.5496C62.765 18.1182 62.1417 17.9265 61.2787 17.9265C60.4156 17.9265 59.6965 18.1182 59.217 18.5017C58.6896 18.8851 58.354 19.3165 58.1622 19.7958L55.717 19.2207C56.0047 18.4058 56.4362 17.7348 57.0115 17.2555C57.5869 16.7282 58.2102 16.3927 58.9773 16.153C59.6965 15.9134 60.5115 15.8175 61.3266 15.8175C61.854 15.8175 62.4293 15.8654 63.0526 16.0092C63.6759 16.153 64.2033 16.3447 64.7307 16.6803C65.2581 17.0158 65.6896 17.4951 66.0252 18.1182C66.3608 18.7413 66.5526 19.5562 66.5526 20.5148V29.4781H64.0115V27.5608H63.9156C63.7239 27.8963 63.4841 28.2318 63.1485 28.5674C62.8129 28.9029 62.3814 29.1425 61.854 29.3822C61.1828 29.5739 60.5115 29.7177 59.7923 29.7177ZM60.3677 27.6087C61.0869 27.6087 61.7102 27.4649 62.2376 27.1773C62.765 26.8897 63.1485 26.5063 63.4362 26.027C63.7239 25.5476 63.8677 25.0683 63.8677 24.5411V22.8155C63.7718 22.9114 63.58 23.0073 63.3403 23.0552C63.0526 23.1511 62.765 23.199 62.4293 23.2469C62.0937 23.2949 61.7581 23.3428 61.4225 23.3907C61.0869 23.4386 60.8471 23.4866 60.6074 23.4866C60.08 23.5345 59.6485 23.6783 59.217 23.8221C58.7855 23.9659 58.4499 24.2056 58.2102 24.4932C57.9704 24.7807 57.8266 25.1642 57.8266 25.6435C57.8266 26.3146 58.0663 26.7939 58.5458 27.1294C59.0252 27.417 59.6006 27.6087 60.3677 27.6087Z" fill="#23395B"></path><path d="M12.1827 21.8089H16.1143V31.587H12.7581C12.4225 31.587 12.1827 31.2994 12.1827 31.0118C12.9499 28.088 12.9019 25.0204 12.1827 21.8089Z" fill="#1CD3EA"></path><path d="M16.1142 21.8089H20.0458C19.3745 24.9724 19.2786 28.088 20.0458 31.0118C20.0458 31.3474 19.806 31.587 19.4704 31.587H16.1142V21.8089Z" fill="#49B0F5"></path><path d="M12.1827 10.8326H16.1143V20.7545H12.1827C12.9019 17.4472 12.9019 14.1399 12.1827 10.8326Z" fill="#1CD3EA"></path><path d="M16.1142 10.8326H20.0458C19.3266 14.0919 19.3266 17.3992 20.0458 20.7545H16.1142V10.8326Z" fill="#49B0F5"></path><path d="M12.7581 -3.8147e-06H16.1622V9.77808H12.1827C12.854 6.56665 12.9499 3.49901 12.1827 0.527242C12.1827 0.239651 12.4704 -3.8147e-06 12.7581 -3.8147e-06Z" fill="#1CD3EA"></path><path d="M16.1622 -3.8147e-06H19.5663C19.8539 -3.8147e-06 20.0937 0.239651 20.0937 0.527242C19.3265 3.35522 19.3745 6.47079 20.0937 9.77808H16.1622V-3.8147e-06Z" fill="#49B0F5"></path><path d="M22.7307 21.8089H26.6622V31.587H23.306C22.9704 31.587 22.7307 31.2994 22.7307 31.0118C23.4978 28.088 23.4019 25.0204 22.7307 21.8089Z" fill="#49B0F5"></path><path d="M26.6622 21.8089H30.5937C29.9225 24.9245 29.8745 27.9921 30.5937 31.0118C30.5937 31.2994 30.354 31.587 30.0183 31.587H26.6142L26.6622 21.8089Z" fill="#6F91FF"></path><path d="M22.7307 10.8326H26.6622V20.7545H22.7307C23.4498 17.4472 23.4498 14.1399 22.7307 10.8326Z" fill="#49B0F5"></path><path d="M26.6622 10.8326H30.5937C29.8745 14.1399 29.8745 17.4472 30.5937 20.7545H26.6622V10.8326Z" fill="#6F91FF"></path><path d="M23.306 0.623121L26.6622 3.97835V9.7781H22.7307C23.4498 6.71046 23.4498 3.73869 22.7307 0.86278C22.7307 0.527257 23.1142 0.383462 23.306 0.623121Z" fill="#49B0F5"></path><path d="M26.6622 3.97832L30.306 7.62115C30.4978 7.81287 30.5937 8.10046 30.5937 8.34012V9.77808H26.6622V3.97832Z" fill="#6F91FF"></path><path d="M39.8951 29.7177V11.7433H46.4636C47.7581 11.7433 48.8129 11.935 49.6279 12.3664C50.443 12.7978 51.0663 13.373 51.4978 14.044C51.9293 14.763 52.1211 15.5778 52.1211 16.4406C52.1211 17.2075 51.9773 17.8306 51.6896 18.31C51.4019 18.8372 51.0663 19.2207 50.5869 19.5562C50.1074 19.8438 49.628 20.0834 49.0526 20.2272V20.419C49.628 20.4669 50.2512 20.6586 50.8266 20.9941C51.4019 21.3297 51.8814 21.8569 52.2649 22.48C52.6485 23.1511 52.8403 23.918 52.8403 24.8287C52.8403 25.7394 52.6485 26.5542 52.217 27.3211C51.7855 28.0401 51.1143 28.6153 50.2512 29.0467C49.3403 29.4781 48.1896 29.6698 46.7992 29.6698L39.8951 29.7177ZM42.6279 19.5562H46.2718C46.8951 19.5562 47.4225 19.4603 47.9019 19.2207C48.3814 18.981 48.7649 18.6455 49.0526 18.2141C49.3403 17.7827 49.4841 17.3034 49.4841 16.7282C49.4841 15.9613 49.2444 15.3382 48.717 14.8589C48.1896 14.3316 47.3745 14.092 46.3197 14.092H42.6279V19.5562ZM42.6279 27.417H46.5595C47.854 27.417 48.7649 27.1773 49.3403 26.6501C49.9156 26.1708 50.2033 25.4997 50.2033 24.7807C50.2033 24.2056 50.0595 23.6783 49.7718 23.199C49.4841 22.7197 49.1006 22.3362 48.5252 22.0486C47.9978 21.7611 47.3745 21.6173 46.6553 21.6173H42.6279V27.417Z" fill="#23395B"></path><path d="M69.9567 29.6698V16.2009H72.4978V18.4058H72.6896C72.9773 17.6389 73.4088 17.0637 74.08 16.6802C74.7513 16.2968 75.4704 16.0571 76.3814 16.0571C77.2924 16.0571 78.0595 16.2489 78.6348 16.6802C79.2581 17.1116 79.6896 17.6868 79.9773 18.4058H80.1211C80.4568 17.6868 80.9362 17.1116 81.6554 16.6802C82.3746 16.2489 83.1896 16.0571 84.1485 16.0571C85.3951 16.0571 86.354 16.4406 87.1691 17.2075C87.9362 17.9744 88.3198 19.1248 88.3198 20.6586V29.7177H85.6828V20.9462C85.6828 20.0355 85.4431 19.3644 84.9157 18.981C84.4362 18.5496 83.8129 18.3579 83.1417 18.3579C82.2787 18.3579 81.6074 18.5975 81.128 19.1248C80.6485 19.652 80.4088 20.3231 80.4088 21.1379V29.7177H77.8198V20.7544C77.8198 20.0355 77.58 19.4124 77.1485 18.981C76.6691 18.5496 76.0937 18.3099 75.3745 18.3099C74.8951 18.3099 74.4156 18.4537 73.9841 18.6934C73.5526 18.933 73.217 19.3165 72.9773 19.7958C72.7376 20.2751 72.5937 20.8024 72.5937 21.4255V29.7177L69.9567 29.6698Z" fill="#23395B"></path><path d="M92.0115 29.4301V11.4557H94.6485V18.1182H94.7924C94.9362 17.8306 95.1759 17.4951 95.4636 17.1596C95.7513 16.7761 96.1348 16.4885 96.6622 16.2009C97.1896 15.9133 97.8609 15.7695 98.6759 15.7695C99.7787 15.7695 100.738 16.0571 101.601 16.5844C102.464 17.1116 103.135 17.9265 103.614 18.981C104.094 20.0355 104.333 21.2817 104.333 22.7197C104.333 24.1576 104.094 25.4038 103.614 26.4583C103.135 27.5128 102.464 28.2797 101.601 28.8549C100.738 29.4301 99.7787 29.7177 98.6759 29.7177C97.8609 29.7177 97.1896 29.5739 96.6622 29.2863C96.1348 28.9987 95.7513 28.7111 95.4636 28.3277C95.1759 27.9442 94.9362 27.6087 94.7924 27.3211H94.5526V29.4301H92.0115ZM94.5526 22.7197C94.5526 23.6783 94.6965 24.4931 94.9841 25.2121C95.2718 25.9311 95.6554 26.4583 96.1828 26.8897C96.7102 27.2732 97.3335 27.5128 98.1006 27.5128C98.8677 27.5128 99.5389 27.3211 100.066 26.8897C100.594 26.4583 100.977 25.8832 101.265 25.1642C101.553 24.4452 101.696 23.6304 101.696 22.7197C101.696 21.8089 101.553 21.042 101.313 20.3231C101.073 19.6041 100.642 19.0768 100.114 18.6454C99.5869 18.2141 98.9157 18.0223 98.1485 18.0223C97.3814 18.0223 96.7581 18.2141 96.2307 18.5975C95.7033 18.981 95.3198 19.5561 95.0321 20.2272C94.6965 20.9462 94.5526 21.761 94.5526 22.7197Z" fill="#23395B"></path><path d="M112.916 29.7177C111.669 29.7177 110.566 29.4301 109.607 28.8549C108.649 28.2797 107.929 27.4649 107.402 26.4104C106.875 25.3559 106.635 24.1576 106.635 22.7676C106.635 21.3776 106.875 20.1313 107.402 19.0768C107.929 18.0223 108.649 17.2075 109.607 16.6323C110.566 16.0571 111.669 15.7695 112.916 15.7695C114.162 15.7695 115.265 16.0571 116.224 16.6323C117.183 17.2075 117.902 18.0223 118.429 19.0768C118.957 20.1313 119.197 21.3296 119.197 22.7676C119.197 24.1576 118.957 25.3559 118.429 26.4104C117.902 27.4649 117.183 28.2797 116.224 28.8549C115.313 29.4301 114.21 29.7177 112.916 29.7177ZM112.964 27.5128C113.779 27.5128 114.45 27.2732 114.977 26.8418C115.505 26.4104 115.936 25.8352 116.176 25.1163C116.416 24.3973 116.56 23.5824 116.56 22.7197C116.56 21.8569 116.416 21.09 116.176 20.3231C115.936 19.6041 115.505 19.0289 114.977 18.5975C114.45 18.1661 113.779 17.9265 112.964 17.9265C112.149 17.9265 111.477 18.1661 110.902 18.5975C110.375 19.0289 109.943 19.6041 109.703 20.3231C109.464 21.042 109.32 21.8569 109.32 22.7197C109.32 23.5824 109.464 24.3973 109.703 25.1163C109.943 25.8352 110.375 26.4104 110.902 26.8418C111.429 27.3211 112.101 27.5128 112.964 27.5128Z" fill="#23395B"></path><path d="M127.827 29.7177C126.58 29.7177 125.477 29.4301 124.518 28.8549C123.56 28.2797 122.84 27.4649 122.313 26.4104C121.786 25.3559 121.546 24.1576 121.546 22.7676C121.546 21.3776 121.786 20.1313 122.313 19.0768C122.84 18.0223 123.56 17.2075 124.518 16.6323C125.477 16.0571 126.58 15.7695 127.827 15.7695C129.073 15.7695 130.176 16.0571 131.135 16.6323C132.094 17.2075 132.813 18.0223 133.34 19.0768C133.868 20.1313 134.107 21.3296 134.107 22.7676C134.107 24.1576 133.868 25.3559 133.34 26.4104C132.813 27.4649 132.094 28.2797 131.135 28.8549C130.176 29.4301 129.025 29.7177 127.827 29.7177ZM127.827 27.5128C128.642 27.5128 129.313 27.2732 129.84 26.8418C130.368 26.4104 130.799 25.8352 131.039 25.1163C131.279 24.3973 131.423 23.5824 131.423 22.7197C131.423 21.8569 131.279 21.09 131.039 20.3231C130.799 19.6041 130.368 19.0289 129.84 18.5975C129.313 18.1661 128.642 17.9265 127.827 17.9265C127.012 17.9265 126.34 18.1661 125.765 18.5975C125.238 19.0289 124.806 19.6041 124.566 20.3231C124.327 21.042 124.183 21.8569 124.183 22.7197C124.183 23.5824 124.327 24.3973 124.566 25.1163C124.806 25.8352 125.238 26.4104 125.765 26.8418C126.34 27.3211 127.012 27.5128 127.827 27.5128Z" fill="#23395B"></path><path d="M147.053 16.153C146.957 15.3381 146.573 14.6671 145.902 14.2357C145.231 13.7564 144.368 13.5647 143.361 13.5647C142.642 13.5647 141.971 13.6605 141.443 13.9002C140.916 14.1399 140.484 14.4274 140.197 14.8588C139.909 15.2423 139.765 15.7216 139.765 16.2009C139.765 16.6323 139.861 17.0158 140.053 17.3034C140.244 17.591 140.532 17.8785 140.868 18.0703C141.203 18.262 141.539 18.4537 141.923 18.5975C142.306 18.7413 142.69 18.8372 143.025 18.933L144.799 19.4124C145.375 19.5562 145.95 19.7479 146.573 19.9875C147.197 20.2272 147.724 20.5627 148.251 20.9462C148.779 21.3296 149.162 21.8089 149.498 22.3841C149.834 22.9593 149.977 23.6783 149.977 24.4452C149.977 25.4518 149.738 26.3625 149.21 27.1773C148.683 27.9442 147.916 28.5673 146.957 29.0467C145.95 29.526 144.751 29.7177 143.361 29.7177C141.971 29.7177 140.868 29.526 139.861 29.0946C138.854 28.6632 138.087 28.0401 137.56 27.2732C136.984 26.5063 136.697 25.5476 136.649 24.4931H139.381C139.429 25.1642 139.621 25.6914 140.005 26.1228C140.388 26.5542 140.868 26.8897 141.443 27.0814C142.018 27.2732 142.642 27.417 143.361 27.417C144.128 27.417 144.799 27.2732 145.423 27.0335C145.998 26.7939 146.477 26.4583 146.861 26.0269C147.197 25.5956 147.388 25.0683 147.388 24.4931C147.388 23.9659 147.245 23.5345 146.957 23.199C146.669 22.8634 146.238 22.5759 145.758 22.3362C145.231 22.0965 144.655 21.9048 144.032 21.761L141.923 21.1858C140.484 20.8024 139.334 20.2272 138.518 19.4603C137.655 18.6934 137.272 17.6868 137.272 16.4406C137.272 15.3861 137.56 14.5233 138.135 13.7085C138.71 12.9416 139.477 12.3184 140.436 11.8871C141.395 11.4557 142.498 11.2639 143.697 11.2639C144.895 11.2639 145.998 11.4557 146.909 11.8871C147.868 12.3184 148.587 12.8936 149.114 13.6605C149.642 14.4274 149.929 15.2423 149.977 16.2489L147.053 16.153Z" fill="#23395B"></path><path d="M159.806 11.6954H163.114L168.82 25.6914H169.012L174.717 11.6954H178.025V29.6698H175.436V16.6803H175.245L169.923 29.6698H167.765L162.443 16.6803H162.251V29.7177H159.806V11.6954Z" fill="#23395B"></path><path d="M156.498 14.9547V29.7177H153.765V15.5778H153.813C154.245 15.5778 154.724 15.5299 155.155 15.434C155.635 15.3381 156.066 15.1464 156.498 14.9547Z" fill="#23395B"></path><path d="M155.395 14.6193L155.204 14.6672C154.628 14.811 154.053 14.8589 153.478 14.811C152.95 14.7631 152.423 14.6672 151.943 14.4755C150.937 14.092 150.074 13.373 149.45 12.5103C149.306 12.2706 148.971 11.9351 149.163 11.6475C149.258 11.5516 149.354 11.4558 149.498 11.4078C150.553 11.0244 151.752 10.9285 152.854 11.1682C153.19 11.2161 153.478 11.312 153.765 11.4558C154.005 11.5516 154.293 11.6954 154.484 11.8871C154.628 12.0309 154.58 12.2706 154.58 12.4623C154.58 12.5103 154.58 12.6541 154.58 12.7499C154.053 12.5582 153.526 12.4144 152.95 12.3185C152.423 12.2227 151.895 12.1268 151.368 12.2227C151.752 12.2227 152.135 12.3665 152.471 12.4623C152.806 12.5582 153.142 12.702 153.43 12.8458C154.053 13.1813 154.628 13.6606 155.06 14.1879C155.06 14.1879 155.06 14.2358 155.108 14.2358C155.204 14.3796 155.3 14.4755 155.395 14.6193Z" fill="#89E567"></path><path d="M158.8 11.1202C158.752 11.264 158.704 11.4078 158.656 11.5516C158.512 11.935 158.272 12.3664 158.032 12.702C157.841 12.9416 157.649 13.1813 157.457 13.373C157.361 13.4689 157.265 13.5647 157.121 13.6606C157.074 13.7085 156.786 13.9002 156.786 13.9002C156.786 12.3185 157.026 10.6888 157.553 9.10707C157.121 9.92191 156.738 10.7847 156.45 11.6954C156.211 12.4144 156.019 13.1333 155.875 13.9482C155.875 13.9961 155.875 14.044 155.875 14.092C155.779 13.9482 155.731 13.8523 155.683 13.7085C155.3 12.6061 155.252 11.4557 155.539 10.3054C155.827 9.25086 156.402 8.29222 157.217 7.57324C157.361 7.42945 157.553 7.28566 157.745 7.18979C157.889 7.09393 158.128 6.9022 158.272 6.9022C158.416 6.9022 158.464 7.04599 158.512 7.14186C159.135 8.43602 159.183 9.82603 158.8 11.1202Z" fill="#89E567"></path><path d="M10.5526 23.5824L10.5046 23.918C10.4088 24.8766 10.0731 25.8832 9.64163 26.7939C9.25807 27.6087 8.77862 28.3756 8.15533 29.0467C6.90875 30.3888 5.27861 31.3953 3.50464 31.8267C3.02519 31.9226 2.25806 32.2102 1.92245 31.7308C1.77861 31.5391 1.77861 31.2995 1.77861 31.0598C1.77861 29.0946 2.4019 27.1773 3.50464 25.5476C3.79231 25.1163 4.12793 24.6849 4.51149 24.2535C4.84711 23.918 5.18272 23.5345 5.61423 23.3428C5.94985 23.199 6.28546 23.4386 6.57314 23.5345C6.66903 23.5824 6.86081 23.6304 7.05259 23.7262C6.4293 24.4452 5.85396 25.2121 5.3745 26.0749C4.89505 26.8418 4.4156 27.6087 4.22382 28.5194C4.46354 27.8963 4.943 27.417 5.32656 26.8897C5.71012 26.4104 6.09368 25.979 6.52519 25.5956C7.43615 24.7807 8.53889 24.1576 9.68958 23.8221C9.73752 23.8221 9.73752 23.8221 9.78547 23.7742C10.0731 23.7262 10.3129 23.6783 10.5526 23.5824Z" fill="#89E567"></path><path d="M7.05259 16.0092C7.24437 16.153 7.43615 16.3447 7.62793 16.5365C8.15533 17.0637 8.68273 17.6389 9.06629 18.2141C9.35396 18.6455 9.59368 19.1248 9.78547 19.5562C9.88136 19.7958 9.97725 20.0355 10.0731 20.2751C10.1211 20.371 10.217 20.9462 10.2649 20.9462C7.72382 19.9875 5.27861 18.5975 3.07313 16.7761C4.12793 17.9744 5.23067 19.1248 6.52519 20.1314C7.53204 20.9462 8.53889 21.7131 9.78547 22.4321C9.88136 22.48 9.9293 22.48 10.0252 22.5279C9.73752 22.5759 9.54574 22.6238 9.30601 22.5759C7.29231 22.5279 5.47039 21.8569 3.79231 20.7065C2.30601 19.6041 1.10738 18.0703 0.484089 16.3447C0.340253 16.0092 0.244362 15.6737 0.148472 15.2902C0.100527 15.0026 -0.0912542 14.5233 0.0525816 14.2357C0.148472 14.044 0.388198 13.9961 0.627924 13.9961C2.97724 13.7564 5.27861 14.5233 7.05259 16.0092Z" fill="#89E567"></path></svg>